<mxfile host="app.diagrams.net" modified="2021-06-07T11:52:46.291Z" agent="5.0 (Macintosh; Intel Mac OS X 10_15_7) AppleWebKit/605.1.15 (KHTML, like Gecko) Version/14.1.1 Safari/605.1.15" etag="cs7rWOdpXcl3XjeKmLeB" version="14.7.6" type="github">
  <diagram id="6eWVb0ROhZ71HgX8nLj5" name="Page-1">
    <mxGraphModel dx="1298" dy="865" grid="1" gridSize="10" guides="1" tooltips="1" connect="1" arrows="1" fold="1" page="1" pageScale="1" pageWidth="827" pageHeight="1169" math="0" shadow="0">
      <root>
        <mxCell id="0" />
        <mxCell id="1" parent="0" />
        <mxCell id="VzuT72SIAcEVakG1Q93O-4" value="" style="edgeStyle=orthogonalEdgeStyle;rounded=0;orthogonalLoop=1;jettySize=auto;html=1;" edge="1" parent="1" source="VzuT72SIAcEVakG1Q93O-1" target="VzuT72SIAcEVakG1Q93O-3">
          <mxGeometry relative="1" as="geometry" />
        </mxCell>
        <mxCell id="VzuT72SIAcEVakG1Q93O-1" value="Material App" style="rounded=1;whiteSpace=wrap;html=1;" vertex="1" parent="1">
          <mxGeometry x="340" y="50" width="120" height="60" as="geometry" />
        </mxCell>
        <mxCell id="VzuT72SIAcEVakG1Q93O-6" value="" style="edgeStyle=orthogonalEdgeStyle;rounded=0;orthogonalLoop=1;jettySize=auto;html=1;" edge="1" parent="1" source="VzuT72SIAcEVakG1Q93O-3" target="VzuT72SIAcEVakG1Q93O-5">
          <mxGeometry relative="1" as="geometry" />
        </mxCell>
        <mxCell id="VzuT72SIAcEVakG1Q93O-8" value="" style="edgeStyle=orthogonalEdgeStyle;rounded=0;orthogonalLoop=1;jettySize=auto;html=1;" edge="1" parent="1" source="VzuT72SIAcEVakG1Q93O-3" target="VzuT72SIAcEVakG1Q93O-7">
          <mxGeometry relative="1" as="geometry" />
        </mxCell>
        <mxCell id="VzuT72SIAcEVakG1Q93O-10" value="" style="edgeStyle=orthogonalEdgeStyle;rounded=0;orthogonalLoop=1;jettySize=auto;html=1;" edge="1" parent="1" source="VzuT72SIAcEVakG1Q93O-3" target="VzuT72SIAcEVakG1Q93O-9">
          <mxGeometry relative="1" as="geometry" />
        </mxCell>
        <mxCell id="VzuT72SIAcEVakG1Q93O-3" value="Scaffold" style="whiteSpace=wrap;html=1;rounded=1;" vertex="1" parent="1">
          <mxGeometry x="340" y="190" width="120" height="60" as="geometry" />
        </mxCell>
        <mxCell id="VzuT72SIAcEVakG1Q93O-5" value="Color" style="whiteSpace=wrap;html=1;rounded=1;" vertex="1" parent="1">
          <mxGeometry x="60" y="330" width="120" height="60" as="geometry" />
        </mxCell>
        <mxCell id="VzuT72SIAcEVakG1Q93O-16" value="" style="edgeStyle=orthogonalEdgeStyle;rounded=0;orthogonalLoop=1;jettySize=auto;html=1;" edge="1" parent="1" source="VzuT72SIAcEVakG1Q93O-7" target="VzuT72SIAcEVakG1Q93O-15">
          <mxGeometry relative="1" as="geometry" />
        </mxCell>
        <mxCell id="VzuT72SIAcEVakG1Q93O-19" value="" style="edgeStyle=orthogonalEdgeStyle;rounded=0;orthogonalLoop=1;jettySize=auto;html=1;" edge="1" parent="1" source="VzuT72SIAcEVakG1Q93O-7" target="VzuT72SIAcEVakG1Q93O-18">
          <mxGeometry relative="1" as="geometry" />
        </mxCell>
        <mxCell id="VzuT72SIAcEVakG1Q93O-7" value="AppBar&lt;br&gt;" style="whiteSpace=wrap;html=1;rounded=1;" vertex="1" parent="1">
          <mxGeometry x="340" y="330" width="120" height="60" as="geometry" />
        </mxCell>
        <mxCell id="VzuT72SIAcEVakG1Q93O-12" value="" style="edgeStyle=orthogonalEdgeStyle;rounded=0;orthogonalLoop=1;jettySize=auto;html=1;" edge="1" parent="1" source="VzuT72SIAcEVakG1Q93O-9" target="VzuT72SIAcEVakG1Q93O-11">
          <mxGeometry relative="1" as="geometry" />
        </mxCell>
        <mxCell id="VzuT72SIAcEVakG1Q93O-9" value="Center&lt;br&gt;" style="whiteSpace=wrap;html=1;rounded=1;" vertex="1" parent="1">
          <mxGeometry x="560" y="330" width="120" height="60" as="geometry" />
        </mxCell>
        <mxCell id="VzuT72SIAcEVakG1Q93O-14" value="" style="edgeStyle=orthogonalEdgeStyle;rounded=0;orthogonalLoop=1;jettySize=auto;html=1;" edge="1" parent="1" source="VzuT72SIAcEVakG1Q93O-11" target="VzuT72SIAcEVakG1Q93O-13">
          <mxGeometry relative="1" as="geometry" />
        </mxCell>
        <mxCell id="VzuT72SIAcEVakG1Q93O-11" value="Image" style="whiteSpace=wrap;html=1;rounded=1;" vertex="1" parent="1">
          <mxGeometry x="560" y="470" width="120" height="60" as="geometry" />
        </mxCell>
        <mxCell id="VzuT72SIAcEVakG1Q93O-13" value="NetworkImage" style="whiteSpace=wrap;html=1;rounded=1;" vertex="1" parent="1">
          <mxGeometry x="560" y="610" width="120" height="60" as="geometry" />
        </mxCell>
        <mxCell id="VzuT72SIAcEVakG1Q93O-15" value="Text" style="whiteSpace=wrap;html=1;rounded=1;" vertex="1" parent="1">
          <mxGeometry x="340" y="470" width="120" height="60" as="geometry" />
        </mxCell>
        <mxCell id="VzuT72SIAcEVakG1Q93O-18" value="Color" style="whiteSpace=wrap;html=1;rounded=1;" vertex="1" parent="1">
          <mxGeometry x="170" y="460" width="120" height="60" as="geometry" />
        </mxCell>
      </root>
    </mxGraphModel>
  </diagram>
</mxfile>
